test
version=1
nRows=51
nColumns=25
inDegrees=yes
endheader
time	pelvis_tilt	pelvis_list	pelvis_rotation	pelvis_tx	pelvis_ty	pelvis_tz	hip_flexion_r	hip_adduction_r	hip_rotation_r	knee_flexion_r	knee_adduction_r	knee_rotation_r	ankle_angle_r	subtalar_angle_r	mtp_angle_r	hip_flexion_l	hip_adduction_l	hip_rotation_l	knee_flexion_l	knee_adduction_l	knee_rotation_l	ankle_angle_l	subtalar_angle_l	mtp_angle_l
0.008333	0.000000	0.000000	0.000000	0.000000	0.000000	0.000000	0.000000	0.000000	0.000000	0.000000	0.000000	0.000000	0.000000	0.000000	0.000000	0.000000	0.000000	0.000000	0.000000	0.000000	0.000000	0.000000	0.000000	0.000000
0.016667	0.000000	0.000000	0.000000	0.000000	0.000000	0.000000	0.000000	0.000000	0.000000	0.000000	0.000000	0.000000	0.000000	0.000000	0.000000	0.000000	0.000000	0.000000	0.000000	0.000000	0.000000	0.000000	0.000000	0.000000
0.025000	0.000000	0.000000	0.000000	0.000000	0.000000	0.000000	0.000000	0.000000	0.000000	0.000000	0.000000	0.000000	0.000000	0.000000	0.000000	0.000000	0.000000	0.000000	0.000000	0.000000	0.000000	0.000000	0.000000	0.000000
0.033333	0.000000	0.000000	0.000000	0.000000	0.000000	0.000000	0.000000	0.000000	0.000000	0.000000	0.000000	0.000000	0.000000	0.000000	0.000000	0.000000	0.000000	0.000000	0.000000	0.000000	0.000000	0.000000	0.000000	0.000000
0.041667	0.000000	0.000000	0.000000	0.000000	0.000000	0.000000	0.000000	0.000000	0.000000	0.000000	0.000000	0.000000	0.000000	0.000000	0.000000	0.000000	0.000000	0.000000	0.000000	0.000000	0.000000	0.000000	0.000000	0.000000
0.050000	0.000000	0.000000	0.000000	0.000000	0.000000	0.000000	0.000000	0.000000	0.000000	0.000000	0.000000	0.000000	0.000000	0.000000	0.000000	0.000000	0.000000	0.000000	0.000000	0.000000	0.000000	0.000000	0.000000	0.000000
0.058333	0.000000	0.000000	0.000000	0.000000	0.000000	0.000000	0.000000	0.000000	0.000000	0.000000	0.000000	0.000000	0.000000	0.000000	0.000000	0.000000	0.000000	0.000000	0.000000	0.000000	0.000000	0.000000	0.000000	0.000000
0.066667	0.000000	0.000000	0.000000	0.000000	0.000000	0.000000	0.000000	0.000000	0.000000	0.000000	0.000000	0.000000	0.000000	0.000000	0.000000	0.000000	0.000000	0.000000	0.000000	0.000000	0.000000	0.000000	0.000000	0.000000
0.075000	0.000000	0.000000	0.000000	0.000000	0.000000	0.000000	0.000000	0.000000	0.000000	0.000000	0.000000	0.000000	0.000000	0.000000	0.000000	0.000000	0.000000	0.000000	0.000000	0.000000	0.000000	0.000000	0.000000	0.000000
0.083333	0.000000	0.000000	0.000000	0.000000	0.000000	0.000000	0.000000	0.000000	0.000000	0.000000	0.000000	0.000000	0.000000	0.000000	0.000000	0.000000	0.000000	0.000000	0.000000	0.000000	0.000000	0.000000	0.000000	0.000000
0.091667	0.000000	0.000000	0.000000	0.000000	0.000000	0.000000	0.000000	0.000000	0.000000	0.000000	0.000000	0.000000	0.000000	0.000000	0.000000	0.000000	0.000000	0.000000	0.000000	0.000000	0.000000	0.000000	0.000000	0.000000
0.100000	0.000000	0.000000	0.000000	0.000000	0.000000	0.000000	0.000000	0.000000	0.000000	0.000000	0.000000	0.000000	0.000000	0.000000	0.000000	0.000000	0.000000	0.000000	0.000000	0.000000	0.000000	0.000000	0.000000	0.000000
0.108333	0.000000	0.000000	0.000000	0.000000	0.000000	0.000000	0.000000	0.000000	0.000000	0.000000	0.000000	0.000000	0.000000	0.000000	0.000000	0.000000	0.000000	0.000000	0.000000	0.000000	0.000000	0.000000	0.000000	0.000000
0.116667	0.000000	0.000000	0.000000	0.000000	0.000000	0.000000	0.000000	0.000000	0.000000	0.000000	0.000000	0.000000	0.000000	0.000000	0.000000	0.000000	0.000000	0.000000	0.000000	0.000000	0.000000	0.000000	0.000000	0.000000
0.125000	0.000000	0.000000	0.000000	0.000000	0.000000	0.000000	0.000000	0.000000	0.000000	0.000000	0.000000	0.000000	0.000000	0.000000	0.000000	0.000000	0.000000	0.000000	0.000000	0.000000	0.000000	0.000000	0.000000	0.000000
0.133333	0.000000	0.000000	0.000000	0.000000	0.000000	0.000000	0.000000	0.000000	0.000000	0.000000	0.000000	0.000000	0.000000	0.000000	0.000000	0.000000	0.000000	0.000000	0.000000	0.000000	0.000000	0.000000	0.000000	0.000000
0.141667	0.000000	0.000000	0.000000	0.000000	0.000000	0.000000	0.000000	0.000000	0.000000	0.000000	0.000000	0.000000	0.000000	0.000000	0.000000	0.000000	0.000000	0.000000	0.000000	0.000000	0.000000	0.000000	0.000000	0.000000
0.150000	0.000000	0.000000	0.000000	0.000000	0.000000	0.000000	1.247424	-0.361712	-0.864774	16.923727	-2.442507	15.419962	1.165650	10.831588	0.000000	38.602077	2.047072	5.468870	5.593683	-1.271527	-0.474975	-12.214643	15.969745	0.000000
0.158333	0.000000	0.000000	0.000000	0.000000	0.000000	0.000000	1.288686	-1.052225	-0.888578	18.178862	-2.150052	14.506804	-0.210024	11.886430	0.000000	37.871758	2.712561	5.694780	5.577550	-1.203171	0.010672	-12.415718	15.432200	0.000000
0.166667	0.000000	0.000000	0.000000	0.000000	0.000000	0.000000	1.322110	-1.801242	-0.919100	19.547834	-1.759787	13.458029	-1.799354	13.125274	0.000000	37.030876	3.408083	5.881680	5.568604	-1.164776	0.456140	-12.377208	14.896505	0.000000
0.175000	0.000000	0.000000	0.000000	0.000000	0.000000	0.000000	1.470770	-2.599441	-0.934709	21.058918	-1.262089	12.285543	-3.640318	14.520707	0.000000	36.178982	4.113527	6.031252	5.576759	-1.157356	0.818875	-12.135369	14.436870	0.000000
0.183333	0.000000	0.000000	0.000000	0.000000	0.000000	0.000000	1.724152	-3.431665	-0.932892	22.712320	-0.661333	11.033625	-5.756834	16.019302	0.000000	35.299454	4.807032	6.155862	5.590030	-1.176756	1.066555	-11.745300	14.102846	0.000000
0.191667	0.000000	0.000000	0.000000	0.000000	0.000000	0.000000	2.089217	-4.277855	-0.913828	24.508301	0.026675	9.765415	-8.147170	17.537317	0.000000	34.389816	5.465683	6.271309	5.586421	-1.211802	1.186469	-11.266688	13.914444	0.000000
0.200000	0.000000	0.000000	0.000000	0.000000	0.000000	0.000000	2.576744	-5.114741	-0.882837	26.447912	0.773925	8.562439	-10.765431	18.963667	0.000000	33.453896	6.068678	6.387299	5.543132	-1.247427	1.191862	-10.751214	13.864643	0.000000
0.208333	0.000000	0.000000	0.000000	0.000000	0.000000	0.000000	3.185412	-5.918561	-0.850922	28.531807	1.542665	7.519221	-13.506448	20.171700	0.000000	32.490654	6.600090	6.504282	5.443393	-1.268876	1.118755	-10.235118	13.926016	0.000000
0.216667	0.000000	0.000000	0.000000	0.000000	0.000000	0.000000	3.913810	-6.666716	-0.830442	30.762838	2.290494	6.729503	-16.202108	21.040562	0.000000	31.505573	7.049488	6.612339	5.282250	-1.264458	1.018690	-9.736932	14.059689	0.000000
0.225000	0.000000	0.000000	0.000000	0.000000	0.000000	0.000000	4.760519	-7.340202	-0.830786	33.143017	2.977094	6.271988	-18.639463	21.478411	0.000000	30.510645	7.412054	6.692054	5.067493	-1.227768	0.947729	-9.260537	14.225412	0.000000
0.233333	0.000000	0.000000	0.000000	0.000000	0.000000	0.000000	5.726338	-7.925375	-0.855291	35.671566	3.569521	6.195659	-20.599838	21.440334	0.000000	29.523010	7.687990	6.718312	4.816554	-1.158255	0.955346	-8.801333	14.389566	0.000000
0.241667	0.000000	0.000000	0.000000	0.000000	0.000000	0.000000	6.815648	-8.415069	-0.898513	38.340534	4.047163	6.508433	-21.907953	20.931862	0.000000	28.563181	7.881543	6.665048	4.551313	-1.060553	1.076090	-8.352680	14.530027	0.000000
0.250000	0.000000	0.000000	0.000000	0.000000	0.000000	0.000000	8.034849	-8.808427	-0.945851	41.130096	4.404915	7.172563	-22.470091	20.000586	0.000000	27.651325	8.000067	6.511341	4.291650	-0.943029	1.324076	-7.911094	14.637561	0.000000
0.258333	0.000000	0.000000	0.000000	0.000000	0.000000	0.000000	9.389444	-9.110258	-0.975540	44.005333	4.653905	8.109553	-22.287548	18.723890	0.000000	26.803911	8.053678	6.245848	4.050084	-0.816338	1.690882	-7.478986	14.715219	0.000000
0.266667	0.000000	0.000000	0.000000	0.000000	0.000000	0.000000	10.881233	-9.329750	-0.962524	46.917194	4.819026	9.212763	-21.443619	17.200155	0.000000	26.031439	8.055177	5.869733	3.829239	-0.691902	2.146678	-7.064075	14.776416	0.000000
0.275000	0.000000	0.000000	0.000000	0.000000	0.000000	0.000000	12.505659	-9.478737	-0.883407	49.806103	4.934037	10.365318	-20.074369	15.542070	0.000000	25.337669	8.019326	5.397061	3.622796	-0.579930	2.646260	-6.676015	14.841353	0.000000
0.283333	0.000000	0.000000	0.000000	0.000000	0.000000	0.000000	14.250306	-9.569530	-0.719383	52.607464	5.036441	11.458190	-18.335068	13.867943	0.000000	24.720406	7.961186	4.853029	3.419252	-0.487380	3.138568	-6.322271	14.931788	0.000000
0.291667	0.000000	0.000000	0.000000	0.000000	0.000000	0.000000	16.094984	-9.613298	-0.458869	55.258007	5.161963	12.406733	-16.372473	12.287486	0.000000	24.173670	7.894532	4.269813	3.207459	-0.417115	3.577125	-6.004741	15.066010	0.000000
0.300000	0.000000	0.000000	0.000000	0.000000	0.000000	0.000000	18.013742	-9.619270	-0.098709	57.702175	5.339481	13.160236	-14.308603	10.885622	0.000000	23.690176	7.830792	3.680601	2.982063	-0.368454	3.929280	-5.717982	15.255383	0.000000
0.308333	0.000000	0.000000	0.000000	0.000000	0.000000	0.000000	19.977983	-9.594238	0.355336	59.897003	5.586875	13.702932	-12.235079	9.710849	0.000000	23.263094	7.778055	3.113962	2.746934	-0.338322	4.181972	-5.449467	15.502917	0.000000
0.316667	0.000000	0.000000	0.000000	0.000000	0.000000	0.000000	21.958994	-9.542220	0.890107	61.813755	5.910200	14.047347	-10.214473	8.772358	0.000000	22.886557	7.740301	2.589995	2.515454	-0.322604	4.342975	-5.181747	15.803555	0.000000
0.325000	0.000000	0.000000	0.000000	0.000000	0.000000	0.000000	23.929831	-9.464569	1.485956	63.437531	6.303917	14.224205	-8.284936	8.046588	0.000000	22.554745	7.717626	2.119464	2.307435	-0.317640	4.436945	-4.895991	16.145348	0.000000
0.333333	0.000000	0.000000	0.000000	0.000000	0.000000	0.000000	25.866089	-9.360554	2.118606	64.765388	6.753022	14.271257	-6.465882	7.489968	0.000000	22.260017	7.707267	1.705093	2.144053	-0.321427	4.497845	-4.575311	16.511240	0.000000
0.341667	0.000000	0.000000	0.000000	0.000000	0.000000	0.000000	27.745770	-9.228058	2.760579	65.803795	7.235244	14.223938	-4.763947	7.053210	0.000000	21.990580	7.704515	1.345177	2.042169	-0.333530	4.559874	-4.207313	16.881098	0.000000
0.350000	0.000000	0.000000	0.000000	0.000000	0.000000	0.000000	29.548334	-9.064278	3.384524	66.565132	7.725224	14.109448	-3.178446	6.692080	0.000000	21.729208	7.703270	1.036794	2.010372	-0.353984	4.650836	-3.785853	17.233799	0.000000
0.358333	0.000000	0.000000	0.000000	0.000000	0.000000	0.000000	31.254335	-8.866718	3.966070	67.064636	8.198439	13.946362	-1.704816	6.372289	0.000000	21.453926	7.696858	0.778775	2.047692	-0.382435	4.788074	-3.311825	17.548956	0.000000
0.366667	0.000000	0.000000	0.000000	0.000000	0.000000	0.000000	32.846115	-8.634092	4.486231	67.317810	8.634151	13.746883	-0.336992	6.069613	0.000000	21.140726	7.679169	0.572404	2.144975	-0.418151	4.977749	-2.792319	17.808809	0.000000
0.375000	0.000000	0.000000	0.000000	0.000000	0.000000	0.000000	34.309433	-8.367057	4.932774	67.338493	9.016888	13.518845	0.930380	5.768133	0.000000	20.767019	7.645763	0.421396	2.287215	-0.460131	5.215475	-2.239067	18.000565	0.000000
0.383333	0.000000	0.000000	0.000000	0.000000	0.000000	0.000000	35.635509	-8.068246	5.301157	67.137405	9.337626	13.267117	2.100291	5.458338	0.000000	20.315323	7.594124	0.330288	2.456411	-0.507168	5.489044	-1.666616	18.118736	0.000000
0.391667	0.000000	0.000000	0.000000	0.000000	0.000000	0.000000	36.822834	-7.741914	5.593451	66.721901	9.593157	12.994395	3.173258	5.136823	0.000000	19.776079	7.523653	0.303212	2.634239	-0.558113	5.781904	-1.090486	18.165657	0.000000
0.400000	0.000000	0.000000	0.000000	0.000000	0.000000	0.000000	37.878323	-7.393074	5.816595	66.096931	9.784634	12.700848	4.148566	4.807535	0.000000	19.149248	7.435328	0.342215	2.804285	-0.612557	6.076478	-0.524856	18.150297	0.000000
0.408333	0.000000	0.000000	0.000000	0.000000	0.000000	0.000000	38.816853	-7.026580	5.980696	65.266403	9.915843	12.382874	5.026314	4.482882	0.000000	18.443781	7.331217	0.446018	2.953101	-0.671273	6.356308	0.019728	18.086250	0.000000
0.416667	0.000000	0.000000	0.000000	0.000000	0.000000	0.000000	39.658737	-6.645793	6.098610	64.234222	9.991997	12.032426	5.808970	4.182528	0.000000	17.674978	7.213608	0.609086	3.069935	-0.736078	6.607128	0.537225	17.989670	0.000000
0.425000	0.000000	0.000000	0.000000	0.000000	0.000000	0.000000	40.426365	-6.252414	6.184841	63.005348	10.019684	11.638074	6.501876	3.928535	0.000000	16.862335	7.084064	0.822688	3.147735	-0.808704	6.818080	1.025517	17.877317	0.000000
